<svg width="41" height="40" viewBox="0 0 41 40" fill="none" xmlns="http://www.w3.org/2000/svg">
<path opacity="0.5" d="M3.83398 26.6667C3.83398 21.9527 3.83398 19.5956 5.29845 18.1312C6.76292 16.6667 9.11994 16.6667 13.834 16.6667H27.1673C31.8814 16.6667 34.2384 16.6667 35.7029 18.1312C37.1673 19.5956 37.1673 21.9527 37.1673 26.6667C37.1673 31.3808 37.1673 33.7378 35.7029 35.2023C34.2384 36.6667 31.8814 36.6667 27.1673 36.6667H13.834C9.11994 36.6667 6.76292 36.6667 5.29845 35.2023C3.83398 33.7378 3.83398 31.3808 3.83398 26.6667Z" fill="#6F00FF"/>
<path d="M13.8327 28.3334C14.7532 28.3334 15.4993 27.5872 15.4993 26.6667C15.4993 25.7462 14.7532 25 13.8327 25C12.9122 25 12.166 25.7462 12.166 26.6667C12.166 27.5872 12.9122 28.3334 13.8327 28.3334Z" fill="#6F00FF"/>
<path d="M20.4993 28.3334C21.4198 28.3334 22.166 27.5872 22.166 26.6667C22.166 25.7462 21.4198 25 20.4993 25C19.5789 25 18.8327 25.7462 18.8327 26.6667C18.8327 27.5872 19.5789 28.3334 20.4993 28.3334Z" fill="#6F00FF"/>
<path d="M28.8327 26.6667C28.8327 27.5872 28.0865 28.3334 27.166 28.3334C26.2455 28.3334 25.4993 27.5872 25.4993 26.6667C25.4993 25.7462 26.2455 25 27.166 25C28.0865 25 28.8327 25.7462 28.8327 26.6667Z" fill="#6F00FF"/>
<path d="M11.75 13.3334C11.75 8.50088 15.6675 4.58337 20.5 4.58337C24.5754 4.58337 28.003 7.37074 28.9744 11.1449C29.1465 11.8135 29.828 12.216 30.4965 12.0439C31.1651 11.8718 31.5676 11.1904 31.3955 10.5218C30.1467 5.66987 25.7438 2.08337 20.5 2.08337C14.2868 2.08337 9.25 7.12017 9.25 13.3334V16.7577C9.97752 16.7034 10.8044 16.6815 11.75 16.6727V13.3334Z" fill="#6F00FF"/>
</svg>
