<svg width="24" height="24" viewBox="0 0 24 24" fill="none" xmlns="http://www.w3.org/2000/svg">
<path d="M17.1762 8.66444C18.7196 9.77162 20.6102 10.4231 22.6523 10.4231V6.47959C22.2658 6.47967 21.8803 6.43923 21.5023 6.35884V9.46291C19.4604 9.46291 17.57 8.81147 16.0262 7.70438V15.7519C16.0262 19.7776 12.7743 23.0409 8.76309 23.0409C7.26641 23.0409 5.87531 22.5868 4.71973 21.808C6.03864 23.1614 7.87796 24.001 9.91285 24.001C13.9243 24.001 17.1764 20.7377 17.1764 16.7118V8.66444H17.1762ZM18.5949 4.68597C17.8061 3.8212 17.2883 2.70365 17.1762 1.46815V0.960938H16.0864C16.3607 2.53126 17.2964 3.87285 18.5949 4.68597ZM7.25681 18.7188C6.81614 18.1389 6.578 17.4296 6.57907 16.7002C6.57907 14.859 8.06647 13.3661 9.90153 13.3661C10.2435 13.366 10.5835 13.4186 10.9094 13.5223V9.49075C10.5285 9.43836 10.1441 9.41612 9.75986 9.42428V12.5623C9.4337 12.4585 9.0936 12.4058 8.75152 12.4061C6.91646 12.4061 5.42914 13.8988 5.42914 15.7403C5.42914 17.0424 6.1726 18.1696 7.25681 18.7188Z" fill="#FF004F"/>
<path d="M16.0269 7.7043C17.5707 8.81139 19.4611 9.46283 21.503 9.46283V6.35876C20.3632 6.11511 19.3543 5.51738 18.5956 4.68597C17.2971 3.87276 16.3615 2.53118 16.0872 0.960938H13.2246V16.7116C13.2181 18.5478 11.7332 20.0346 9.90211 20.0346C8.82306 20.0346 7.86443 19.5184 7.25731 18.7188C6.17318 18.1696 5.42972 17.0423 5.42972 15.7404C5.42972 13.8991 6.91704 12.4062 8.7521 12.4062C9.10369 12.4062 9.44256 12.4611 9.76044 12.5624V9.42436C5.8197 9.50607 2.65039 12.7375 2.65039 16.7117C2.65039 18.6956 3.43962 20.494 4.72055 21.8081C5.87614 22.5868 7.26724 23.041 8.76391 23.041C12.7752 23.041 16.027 19.7775 16.027 15.7519V7.7043H16.0269Z" fill="black"/>
<path d="M21.5025 6.3578V5.51848C20.4748 5.52005 19.4672 5.23119 18.5952 4.68493C19.3671 5.53306 20.3835 6.11787 21.5025 6.3578ZM16.0867 0.959983C16.0605 0.809911 16.0404 0.658851 16.0265 0.507214V0H12.074V15.7508C12.0677 17.5868 10.5829 19.0736 8.75164 19.0736C8.214 19.0736 7.70638 18.9455 7.25685 18.7179C7.86397 19.5174 8.82259 20.0336 9.90164 20.0336C11.7326 20.0336 13.2177 18.5469 13.2241 16.7107V0.959983H16.0867ZM9.76014 9.42341V8.52989C9.42988 8.48459 9.09691 8.46186 8.76353 8.46202C4.75192 8.46194 1.5 11.7254 1.5 15.7508C1.5 18.2745 2.77806 20.4987 4.72017 21.807C3.43924 20.493 2.65001 18.6944 2.65001 16.7106C2.65001 12.7365 5.81924 9.50511 9.76014 9.42341Z" fill="#00F2EA"/>
</svg>
